<svg width="2376" height="2360" xmlns="http://www.w3.org/2000/svg" xmlns:xlink="http://www.w3.org/1999/xlink" xml:space="preserve" overflow="hidden"><g transform="translate(-910 -36)"><path d="M924 1216C924 572.036 1449.62 49.9998 2098 49.9998 2746.38 49.9998 3272 572.036 3272 1216 3272 1859.96 2746.38 2382 2098 2382 1449.62 2382 924 1859.96 924 1216Z" stroke="#F6D258" stroke-width="27.5" stroke-miterlimit="8" fill="#F6D258" fill-rule="evenodd"/><path d="M996 1216.5C996 612.024 1489.61 122 2098.5 122 2707.39 122 3201 612.024 3201 1216.5 3201 1820.98 2707.39 2311 2098.5 2311 1489.61 2311 996 1820.98 996 1216.5Z" stroke="#F6D258" stroke-width="27.5" stroke-miterlimit="8" fill="#203264" fill-rule="evenodd"/><path d="M1096.5 1217C1096.5 663.335 1545.33 214.5 2099 214.5 2652.67 214.5 3101.5 663.335 3101.5 1217 3101.5 1770.67 2652.67 2219.5 2099 2219.5 1545.33 2219.5 1096.5 1770.67 1096.5 1217Z" stroke="#FFFFFF" stroke-width="4.58333" stroke-miterlimit="8" fill="#FFFFFF" fill-rule="evenodd"/><path d="M1352.5 1238C1352.5 820.197 1686.5 481.5 2098.5 481.5 2510.5 481.5 2844.5 820.197 2844.5 1238 2844.5 1655.8 2510.5 1994.5 2098.5 1994.5 1686.5 1994.5 1352.5 1655.8 1352.5 1238Z" stroke="#172C51" stroke-width="4.58333" stroke-miterlimit="8" fill="#203264" fill-rule="evenodd"/><rect x="2043.5" y="194.5" width="110" height="2045" stroke="#172C51" stroke-width="4.58333" stroke-miterlimit="8" fill="#203264"/><rect x="2159.5" y="256.5" width="214" height="1919" stroke="#FFFFFF" stroke-width="4.58333" stroke-miterlimit="8" fill="#FFFFFF"/><path d="M1204.73 979.605 1360.32 796.807 2035.36 1371.36 1879.78 1554.16Z" stroke="#FFFFFF" stroke-width="4.58333" stroke-miterlimit="8" fill="#FFFFFF" fill-rule="evenodd"/><path d="M1091.1 1404.03 1085.61 853.825 1484.42 1232.91Z" stroke="#203264" stroke-width="4.58333" stroke-miterlimit="8" fill="#203264" fill-rule="evenodd"/><rect x="1825.5" y="256.5" width="214" height="1919" stroke="#FFFFFF" stroke-width="4.58333" stroke-miterlimit="8" fill="#FFFFFF"/><path d="M3006.14 748.79 3157.31 997.863 2758.71 1239.78 2607.54 990.711Z" stroke="#203264" stroke-width="4.58333" stroke-miterlimit="8" fill="#203264" fill-rule="evenodd"/><path d="M3174.79 1253.44 3082.89 1411.65 2717.67 1199.51 2809.57 1041.3Z" stroke="#203264" stroke-width="4.58333" stroke-miterlimit="8" fill="#203264" fill-rule="evenodd"/><path d="M3145.91 1250.39 2900.6 1170.61 3081.45 986.661Z" stroke="#203264" stroke-width="4.58333" stroke-miterlimit="8" fill="#203264" fill-rule="evenodd"/><path d="M1680.32 1066.09 1761.42 969.257 2150.51 1295.12 2069.42 1391.95Z" stroke="#203264" stroke-width="4.58333" stroke-miterlimit="8" fill="#203264" fill-rule="evenodd"/><path d="M2033.53 1231.4 1707.22 931.228 2150.51 922.65Z" stroke="#203264" stroke-width="4.58333" stroke-miterlimit="8" fill="#203264" fill-rule="evenodd"/></g></svg>
