<svg width="2233" height="2217" xmlns="http://www.w3.org/2000/svg" xmlns:xlink="http://www.w3.org/1999/xlink" xml:space="preserve" overflow="hidden"><g transform="translate(-982 -108)"><path d="M996 1216.5C996 612.024 1489.61 122 2098.5 122 2707.39 122 3201 612.024 3201 1216.5 3201 1820.98 2707.39 2311 2098.5 2311 1489.61 2311 996 1820.98 996 1216.5Z" stroke="#F6D258" stroke-width="27.5" stroke-miterlimit="8" fill="#203264" fill-rule="evenodd"/><path d="M1096.5 1217C1096.5 663.335 1545.33 214.5 2099 214.5 2652.67 214.5 3101.5 663.335 3101.5 1217 3101.5 1770.67 2652.67 2219.5 2099 2219.5 1545.33 2219.5 1096.5 1770.67 1096.5 1217Z" stroke="#FFFFFF" stroke-width="4.58333" stroke-miterlimit="8" fill="#FFFFFF" fill-rule="evenodd"/><path d="M1286.5 1238C1286.5 789.269 1650.04 425.5 2098.5 425.5 2546.96 425.5 2910.5 789.269 2910.5 1238 2910.5 1686.73 2546.96 2050.5 2098.5 2050.5 1650.04 2050.5 1286.5 1686.73 1286.5 1238Z" stroke="#172C51" stroke-width="4.58333" stroke-miterlimit="8" fill="#203264" fill-rule="evenodd"/><rect x="2043.5" y="194.5" width="110" height="2045" stroke="#172C51" stroke-width="4.58333" stroke-miterlimit="8" fill="#203264"/><rect x="1875.5" y="256.5" width="163" height="1919" stroke="#FFFFFF" stroke-width="4.58333" stroke-miterlimit="8" fill="#FFFFFF"/><rect x="2159.5" y="256.5" width="161" height="1919" stroke="#FFFFFF" stroke-width="4.58333" stroke-miterlimit="8" fill="#FFFFFF"/><path d="M1175.69 1016.31 1307.11 857.964 2031.09 1458.8 1899.67 1617.15Z" stroke="#FFFFFF" stroke-width="4.58333" stroke-miterlimit="8" fill="#FFFFFF" fill-rule="evenodd"/><path d="M1096.75 1441.98 1089.71 946.24 1469.09 1265.43Z" stroke="#203264" stroke-width="4.58333" stroke-miterlimit="8" fill="#203264" fill-rule="evenodd"/><path d="M2066.91 1495.37 1869.54 1318.75 2132.35 1285.94Z" stroke="#203264" stroke-width="4.58333" stroke-miterlimit="8" fill="#203264" fill-rule="evenodd"/><rect x="1866.5" y="891.5" width="206" height="422" stroke="#203264" stroke-width="4.58333" stroke-miterlimit="8" fill="#203264"/><path d="M3006.14 748.79 3157.31 997.863 2758.71 1239.78 2607.54 990.711Z" stroke="#203264" stroke-width="4.58333" stroke-miterlimit="8" fill="#203264" fill-rule="evenodd"/><path d="M3174.79 1253.44 3082.89 1411.65 2717.67 1199.51 2809.57 1041.3Z" stroke="#203264" stroke-width="4.58333" stroke-miterlimit="8" fill="#203264" fill-rule="evenodd"/><path d="M3145.91 1250.39 2900.6 1170.61 3081.45 986.661Z" stroke="#203264" stroke-width="4.58333" stroke-miterlimit="8" fill="#203264" fill-rule="evenodd"/></g></svg>
